<svg width="1200" height="920" viewBox="0 0 1200 920" fill="none" xmlns="http://www.w3.org/2000/svg">
<rect width="1200" height="920" fill="#F5F5F5"/>
<g clip-path="url(#clip0_243_29)">
<path d="M600 0H1100C1155.23 0 1200 44.7715 1200 100V920H600V0Z" fill="#FFE9E1"/>
<g filter="url(#filter0_f_243_29)">
<path d="M850 710C1043.3 710 1200 598.071 1200 460C1200 321.929 1043.3 210 850 210C656.7 210 500 321.929 500 460C500 598.071 656.7 710 850 710Z" fill="#C1A0A7"/>
</g>
<path d="M0 100C0 44.7715 44.772 0 100 0H600V920H100C44.772 920 0 875.228 0 820V100Z" fill="#EBE7E6"/>
<g filter="url(#filter1_f_243_29)">
<path d="M350 710C543.3 710 700 598.071 700 460C700 321.929 543.3 210 350 210C156.7 210 0 321.929 0 460C0 598.071 156.7 710 350 710Z" fill="#FDDFD4"/>
</g>
</g>
<defs>
<filter id="filter0_f_243_29" x="-100" y="-390" width="1900" height="1700" filterUnits="userSpaceOnUse" color-interpolation-filters="sRGB">
<feFlood flood-opacity="0" result="BackgroundImageFix"/>
<feBlend mode="normal" in="SourceGraphic" in2="BackgroundImageFix" result="shape"/>
<feGaussianBlur stdDeviation="300" result="effect1_foregroundBlur_243_29"/>
</filter>
<filter id="filter1_f_243_29" x="-400" y="-190" width="1500" height="1300" filterUnits="userSpaceOnUse" color-interpolation-filters="sRGB">
<feFlood flood-opacity="0" result="BackgroundImageFix"/>
<feBlend mode="normal" in="SourceGraphic" in2="BackgroundImageFix" result="shape"/>
<feGaussianBlur stdDeviation="200" result="effect1_foregroundBlur_243_29"/>
</filter>
<clipPath id="clip0_243_29">
<path d="M0 100C0 44.7715 44.7715 0 100 0H1100C1155.23 0 1200 44.7715 1200 100V920H100C44.7715 920 0 875.228 0 820V100Z" fill="white"/>
</clipPath>
</defs>
</svg>
